<?xml version="1.0" standalone="no"?>
<!DOCTYPE svg PUBLIC "-//W3C//DTD SVG 1.0//EN" "http://www.w3.org/TR/2001/REC-SVG-20010904/DTD/svg10.dtd">
<svg xmlns="http://www.w3.org/2000/svg" xmlns:xlink="http://www.w3.org/1999/xlink" id="body_1" width="16" height="16">

<g transform="matrix(0.04 0 0 0.04 0 0)">
	<g transform="matrix(1 0 0 1 0 0)">
	</g>
    <path transform="matrix(1 0 0 1 0 0)"  d="M101.057 29.211C 98.826 29.88 97.2 32.118 97.2 34.521C 97.2 36.004 99.146 39.481 123.099 80.8L123.099 80.8L136.2 103.4L142.5 103.51C 146.66 103.583 148.8 103.479 148.8 103.205C 148.8 102.976 140.7 88.754 130.8 71.6C 120.9 54.446 112.8 40.318 112.8 40.205C 112.8 40.092 169.95 40 239.8 40C 309.65 40 366.8 40.069 366.8 40.152C 366.8 40.236 358.43 54.479 348.2 71.802C 337.97 89.126 329.6 103.372 329.6 103.46C 329.6 103.548 332.499 103.57 336.043 103.51L336.043 103.51L342.486 103.4L362.343 69.811C 380.816 38.563 382.2 36.094 382.2 34.38C 382.2 31.989 380.638 29.815 378.492 29.219C 376.643 28.705 102.771 28.698 101.057 29.211M20.2 75.313C 17.175 77.013 16.52 79.766 18.311 83.244C 19.171 84.914 115.303 250.848 148.164 307.384C 154.61 318.474 155.544 319.6 158.299 319.6C 160.044 319.6 162.038 318.666 162.782 317.5C 165.457 313.307 205.2 246.224 205.2 245.903C 205.2 245.518 200.529 237.135 199.394 235.484C 198.965 234.859 196.331 239.093 178.805 268.584C 167.752 287.183 158.589 302.4 158.443 302.4C 158.298 302.4 151.263 290.475 142.81 275.9C 134.357 261.325 112.654 223.93 94.582 192.8C 37.786 94.97 32.8 86.348 32.8 85.969C 32.8 85.746 48.466 85.6 72.4 85.6C 94.18 85.6 112 85.482 112 85.337C 112 85.192 110.61 82.672 108.912 79.737L108.912 79.737L105.824 74.4L63.812 74.407L21.8 74.413L20.2 75.313L101.057 29.211zM146 74.642C 146 74.776 147.371 77.296 149.046 80.242L149.046 80.242L152.092 85.6L219.489 85.6C 273.243 85.6 286.846 85.701 286.691 86.1C 286.585 86.375 271.355 112.234 252.849 143.565C 234.342 174.896 219.2 200.667 219.2 200.834C 219.2 201.464 225.523 212.048 225.71 211.731C 286.227 109.269 302.116 82.056 302.272 80.6C 302.518 78.31 301.425 76.414 299.215 75.3L299.215 75.3L297.43 74.4L221.715 74.4C 180.072 74.4 146 74.509 146 74.642M101.4 115.33C 98.305 116.541 96.946 118.495 97.311 121.21C 97.449 122.242 106.099 137.506 125.102 170.254C 140.277 196.404 157.333 225.81 163.003 235.6C 168.673 245.39 173.449 253.553 173.617 253.741C 173.784 253.928 175.36 251.678 177.117 248.741L177.117 248.741L180.313 243.4L179.072 241.2C 178.39 239.99 163.2 213.71 145.318 182.8L145.318 182.8L112.805 126.6L181.277 126.4L249.748 126.2L253.074 120.678C 254.903 117.641 256.4 115.076 256.4 114.978C 256.4 114.525 102.566 114.874 101.4 115.33M293.029 120.491L289.604 126.2L328.176 126.4L366.747 126.6L345.643 162.2C 311.477 219.832 259.692 307.278 248.997 325.4C 243.544 334.64 238.883 342.415 238.641 342.679C 238.311 343.036 233.853 335.619 221 313.33C 211.54 296.924 202.972 282.07 201.96 280.319L201.96 280.319L200.119 277.137L196.878 282.615L193.637 288.093L194.718 289.978C 210.802 318.014 233.653 357.163 234.424 358.005C 236.155 359.894 238.367 360.304 240.624 359.155C 242.646 358.126 240.276 362.059 311.235 241.982C 315.325 235.062 332.943 205.28 350.387 175.801C 383.66 119.569 383.083 120.634 381.721 118.014C 380.041 114.782 383.332 115.014 337.327 114.891L337.327 114.891L296.453 114.782L293.029 120.491zM156.76 138.7C 169.921 162.406 234.581 272.709 235.654 273.285C 239.737 275.474 241.385 274.174 247.421 263.998C 250.096 259.489 265.387 233.66 281.4 206.6C 311.69 155.414 319.938 141.493 321.274 139.3L321.274 139.3L322.065 138L315.533 138.013L309 138.026L273.8 197.405C 254.44 230.063 238.469 256.742 238.309 256.692C 238.061 256.614 202.14 194.81 177.061 151.313L177.061 151.313L169.4 138.027L162.886 138.013C 156.799 138.001 156.397 138.046 156.76 138.7" stroke="none" fill="#CC2D4D" fill-rule="nonzero" />
	<g transform="matrix(1 0 0 1 0 0)">
	</g>
    <path transform="matrix(1 0 0 1 0 0)"  d="M0 200L0 400L200 400L400 400L400 200L400 0L200 0L0 0L0 200zM379.743 29.559C 381.495 30.714 382.394 32.362 382.397 34.423C 382.4 36.533 384.491 32.82 359.604 74.9L359.604 74.9L342.631 103.6L335.901 103.6C 329.609 103.6 329.197 103.555 329.566 102.9C 329.782 102.515 338.149 88.34 348.158 71.4L348.158 71.4L366.356 40.6L303.211 40.499C 268.48 40.443 211.517 40.443 176.625 40.499L176.625 40.499L113.184 40.6L131.016 71.529C 140.823 88.54 148.948 102.719 149.07 103.039C 149.261 103.535 148.319 103.604 142.617 103.51L142.617 103.51L135.94 103.4L121.347 78.2C 98.365 38.513 97.322 36.674 97.025 35.32C 96.631 33.52 97.959 30.657 99.673 29.612C 101.693 28.38 377.876 28.328 379.743 29.559M109.3 79.938C 111.005 82.974 112.4 85.58 112.4 85.729C 112.4 85.878 94.504 86 72.632 86L72.632 86L32.864 86L39.298 97.1C 42.836 103.205 63.756 139.25 85.786 177.2C 107.815 215.15 133.12 258.755 142.019 274.1C 150.918 289.445 158.312 302 158.45 302C 158.587 302 167.651 286.925 178.591 268.5C 189.531 250.075 198.614 234.859 198.775 234.686C 199.134 234.301 205.697 245.572 205.464 246.172C 204.98 247.414 163.017 317.539 162.3 318.304C 160.471 320.256 156.998 320.327 154.855 318.457C 154.116 317.812 142.048 297.372 123.882 266C 107.513 237.73 78.046 186.88 58.4 153C 38.755 119.12 21.448 89.253 19.94 86.628C 16.866 81.274 16.495 79.434 18.002 76.996C 19.695 74.258 16.85 74.418 63.8 74.418L63.8 74.418L106.2 74.417L109.3 79.938zM299.881 75.3C 301.823 76.613 303.045 79.315 302.535 81.163C 302.216 82.315 226.607 211.084 225.664 212.079C 225.519 212.232 223.91 209.752 222.09 206.568L222.09 206.568L218.779 200.778L252.59 143.554C 271.185 112.08 286.4 86.255 286.4 86.165C 286.4 86.074 256.182 86 219.25 86L219.25 86L152.1 86L148.95 80.528C 147.217 77.519 145.74 74.909 145.667 74.728C 145.593 74.548 179.962 74.4 222.042 74.4L222.042 74.4L298.55 74.4L299.881 75.3zM256.314 115.7C 255.996 116.195 254.422 118.805 252.816 121.5L252.816 121.5L249.897 126.4L181.549 126.4C 143.957 126.4 113.2 126.5 113.2 126.622C 113.2 126.744 128.162 152.705 146.449 184.312C 164.737 215.919 179.877 242.169 180.094 242.646C 180.457 243.444 176.083 251.797 174.187 253.927C 173.816 254.343 171.22 250.153 161.799 233.927C 91.099 112.161 96.528 121.749 97.015 119.531C 97.347 118.022 99.052 116.028 100.58 115.363C 101.58 114.927 115.776 114.828 179.346 114.816L179.346 114.816L256.892 114.8L256.314 115.7zM379.487 115.468C 381.328 116.342 382.397 118.143 382.399 120.375C 382.4 121.97 381.535 123.611 373.861 136.575C 369.165 144.509 351.587 174.22 334.799 202.6C 318.011 230.98 290.43 277.6 273.508 306.2C 256.586 334.8 242.349 358.511 241.87 358.891C 239.871 360.48 236.311 360.26 234.516 358.437C 233.412 357.316 193.6 288.867 193.6 288.09C 193.6 287.868 195.063 285.223 196.851 282.211L196.851 282.211L200.102 276.736L202.551 280.936C 203.898 283.246 212.47 298.096 221.6 313.936C 233.823 335.141 238.314 342.612 238.634 342.268C 238.873 342.01 243.631 334.06 249.208 324.6C 254.785 315.14 283.435 266.753 312.874 217.073C 342.313 167.393 366.4 126.668 366.4 126.573C 366.4 126.478 349.038 126.4 327.817 126.4L327.817 126.4L289.234 126.4L292.716 120.6L296.198 114.8L337.138 114.8C 374.553 114.8 378.2 114.858 379.487 115.468M176.029 149.109C 200.506 191.542 238.202 256.398 238.383 256.39C 238.502 256.385 254.44 229.66 273.8 197.001L273.8 197.001L309 137.622L315.738 137.611L322.476 137.6L321.37 139.5C 320.761 140.545 316.901 147.07 312.791 154C 308.682 160.93 291.32 190.27 274.21 219.2C 257.1 248.13 242.73 272.207 242.277 272.704C 240.352 274.816 236.382 274.718 234.344 272.509C 233.603 271.706 164.989 153.703 156.888 139.3L156.888 139.3L155.932 137.6L162.666 137.609L169.4 137.617L176.029 149.109" stroke="none" fill="#FCFBFB" fill-rule="nonzero" />
	<g transform="matrix(1 0 0 1 0 0)">
	</g>
    <path transform="matrix(1 0 0 1 0 0)"  d="M112.8 40.3C 112.8 40.465 169.95 40.6 239.8 40.6C 309.65 40.6 366.8 40.465 366.8 40.3C 366.8 40.135 309.65 40 239.8 40C 169.95 40 112.8 40.135 112.8 40.3M72.4 85.6L32.6 85.806L72.5 85.903C 98.898 85.967 112.4 85.865 112.4 85.6C 112.4 85.38 112.355 85.244 112.3 85.297C 112.245 85.35 94.29 85.487 72.4 85.6M185.9 85.9C 204.435 85.957 234.765 85.957 253.3 85.9C 271.835 85.842 256.67 85.795 219.6 85.795C 182.53 85.795 167.365 85.842 185.9 85.9M159.5 137.898C 161.315 137.972 164.285 137.972 166.1 137.898C 167.915 137.823 166.43 137.763 162.8 137.763C 159.17 137.763 157.685 137.823 159.5 137.898M312.3 137.898C 314.115 137.972 317.085 137.972 318.9 137.898C 320.715 137.823 319.23 137.763 315.6 137.763C 311.97 137.763 310.485 137.823 312.3 137.898" stroke="none" fill="#E494A4" fill-rule="nonzero" />
	<g transform="matrix(1 0 0 1 0 0)">
	</g>
    <path transform="matrix(1 0 0 1 0 0)"  d="" stroke="none" fill="#ECABB9" fill-rule="nonzero" />
	<g transform="matrix(1 0 0 1 0 0)">
	</g>
    <path transform="matrix(1 0 0 1 0 0)"  d="" stroke="none" fill="#F4D1D9" fill-rule="nonzero" />
</g>
</svg>