<?xml version="1.0" encoding="UTF-8"?>
<svg xmlns="http://www.w3.org/2000/svg" xmlns:xlink="http://www.w3.org/1999/xlink" width="30pt" height="30.000001pt" viewBox="0 0 30 30.000001" version="1.2">
<defs>
<clipPath id="clip1">
  <path d="M 14 8 L 28.066406 8 L 28.066406 26.582031 L 14 26.582031 Z M 14 8 "/>
</clipPath>
<clipPath id="clip2">
  <path d="M 1.933594 5 L 16 5 L 16 24 L 1.933594 24 Z M 1.933594 5 "/>
</clipPath>
<clipPath id="clip3">
  <path d="M 7 2.632812 L 28.066406 2.632812 L 28.066406 9 L 7 9 Z M 7 2.632812 "/>
</clipPath>
</defs>
<g id="surface1">
<path style=" stroke:none;fill-rule:nonzero;fill:rgb(1.179504%,59.609985%,61.959839%);fill-opacity:1;" d="M 8.054688 8.863281 C 7.832031 8.863281 7.648438 9.046875 7.648438 9.273438 C 7.648438 9.378906 7.6875 9.460938 7.730469 9.523438 L 13.132812 18.949219 L 13.601562 18.144531 L 8.769531 9.6875 L 18.558594 9.6875 L 19.046875 8.863281 Z M 8.054688 8.863281 "/>
<g clip-path="url(#clip1)" clip-rule="nonzero">
<path style=" stroke:none;fill-rule:nonzero;fill:rgb(1.179504%,59.609985%,61.959839%);fill-opacity:1;" d="M 27.636719 8.863281 L 21.882812 8.863281 L 21.394531 9.6875 L 26.921875 9.6875 L 17.742188 25.367188 L 15.011719 20.578125 L 14.542969 21.382812 L 17.398438 26.375 C 17.476562 26.5 17.601562 26.582031 17.742188 26.582031 C 17.886719 26.582031 18.027344 26.5 18.089844 26.375 L 27.980469 9.460938 C 28.0625 9.335938 28.0625 9.171875 27.980469 9.046875 C 27.921875 8.945312 27.777344 8.863281 27.636719 8.863281 Z M 27.636719 8.863281 "/>
</g>
<path style=" stroke:none;fill-rule:nonzero;fill:rgb(1.179504%,59.609985%,61.959839%);fill-opacity:1;" d="M 16.355469 15.070312 L 16.824219 15.894531 L 22.269531 6.550781 C 22.351562 6.425781 22.351562 6.261719 22.269531 6.136719 C 22.191406 6.015625 22.066406 5.933594 21.925781 5.933594 L 11.113281 5.933594 L 11.582031 6.757812 L 21.210938 6.757812 Z M 16.355469 15.070312 "/>
<g clip-path="url(#clip2)" clip-rule="nonzero">
<path style=" stroke:none;fill-rule:nonzero;fill:rgb(1.179504%,59.609985%,61.959839%);fill-opacity:1;" d="M 11.6875 23.46875 C 11.765625 23.589844 11.890625 23.671875 12.03125 23.671875 C 12.175781 23.671875 12.316406 23.589844 12.378906 23.46875 L 15.398438 18.332031 L 14.929688 17.503906 L 12.03125 22.4375 L 3.039062 6.757812 L 8.75 6.757812 L 8.28125 5.933594 L 2.34375 5.933594 C 2.121094 5.933594 1.9375 6.117188 1.9375 6.34375 C 1.9375 6.449219 1.976562 6.53125 2.019531 6.59375 Z M 11.6875 23.46875 "/>
</g>
<path style=" stroke:none;fill-rule:nonzero;fill:rgb(1.179504%,59.609985%,61.959839%);fill-opacity:1;" d="M 17.742188 20.371094 C 17.886719 20.371094 18.027344 20.289062 18.089844 20.167969 L 23.738281 10.511719 L 22.800781 10.511719 L 17.742188 19.136719 L 12.808594 10.511719 L 11.871094 10.511719 L 17.398438 20.167969 C 17.457031 20.289062 17.601562 20.371094 17.742188 20.371094 Z M 17.742188 20.371094 "/>
<g clip-path="url(#clip3)" clip-rule="nonzero">
<path style=" stroke:none;fill-rule:nonzero;fill:rgb(1.179504%,59.609985%,61.959839%);fill-opacity:1;" d="M 27.636719 2.632812 L 8.054688 2.632812 C 7.832031 2.632812 7.648438 2.816406 7.648438 3.042969 C 7.648438 3.148438 7.6875 3.230469 7.730469 3.292969 L 10.441406 8.035156 L 11.378906 8.035156 L 8.769531 3.457031 L 26.921875 3.457031 L 24.25 8.035156 L 25.1875 8.035156 L 27.980469 3.25 C 28.0625 3.125 28.0625 2.960938 27.980469 2.835938 C 27.921875 2.714844 27.777344 2.632812 27.636719 2.632812 Z M 27.636719 2.632812 "/>
</g>
</g>
</svg>
