<?xml version="1.0" encoding="UTF-8"?>
<svg xmlns="http://www.w3.org/2000/svg" xmlns:xlink="http://www.w3.org/1999/xlink" width="30pt" height="30.000001pt" viewBox="0 0 30 30.000001" version="1.2">
<defs>
<clipPath id="clip1">
  <path d="M 14 8 L 27.203125 8 L 27.203125 25.585938 L 14 25.585938 Z M 14 8 "/>
</clipPath>
<clipPath id="clip2">
  <path d="M 2.527344 6 L 16 6 L 16 23 L 2.527344 23 Z M 2.527344 6 "/>
</clipPath>
<clipPath id="clip3">
  <path d="M 7 3.085938 L 27.203125 3.085938 L 27.203125 9 L 7 9 Z M 7 3.085938 "/>
</clipPath>
</defs>
<g id="surface1">
<path style=" stroke:none;fill-rule:nonzero;fill:rgb(1.179504%,59.609985%,61.959839%);fill-opacity:1;" d="M 8.304688 8.9375 C 8.09375 8.9375 7.917969 9.113281 7.917969 9.328125 C 7.917969 9.421875 7.957031 9.5 7.996094 9.558594 L 13.101562 18.414062 L 13.542969 17.65625 L 8.980469 9.714844 L 18.226562 9.714844 L 18.6875 8.9375 Z M 8.304688 8.9375 "/>
<g clip-path="url(#clip1)" clip-rule="nonzero">
<path style=" stroke:none;fill-rule:nonzero;fill:rgb(1.179504%,59.609985%,61.959839%);fill-opacity:1;" d="M 26.796875 8.9375 L 21.367188 8.9375 L 20.902344 9.714844 L 26.125 9.714844 L 17.457031 24.4375 L 14.875 19.941406 L 14.429688 20.699219 L 17.128906 25.386719 C 17.203125 25.503906 17.320312 25.582031 17.457031 25.582031 C 17.589844 25.582031 17.726562 25.503906 17.78125 25.386719 L 27.125 9.5 C 27.203125 9.386719 27.203125 9.230469 27.125 9.113281 C 27.066406 9.015625 26.933594 8.9375 26.796875 8.9375 Z M 26.796875 8.9375 "/>
</g>
<path style=" stroke:none;fill-rule:nonzero;fill:rgb(1.179504%,59.609985%,61.959839%);fill-opacity:1;" d="M 16.144531 14.769531 L 16.589844 15.546875 L 21.730469 6.769531 C 21.808594 6.652344 21.808594 6.5 21.730469 6.382812 C 21.65625 6.265625 21.539062 6.1875 21.40625 6.1875 L 11.195312 6.1875 L 11.636719 6.964844 L 20.730469 6.964844 Z M 16.144531 14.769531 "/>
<g clip-path="url(#clip2)" clip-rule="nonzero">
<path style=" stroke:none;fill-rule:nonzero;fill:rgb(1.179504%,59.609985%,61.959839%);fill-opacity:1;" d="M 11.734375 22.65625 C 11.8125 22.773438 11.925781 22.847656 12.0625 22.847656 C 12.195312 22.847656 12.332031 22.773438 12.390625 22.65625 L 15.238281 17.832031 L 14.796875 17.054688 L 12.0625 21.6875 L 3.566406 6.964844 L 8.960938 6.964844 L 8.515625 6.1875 L 2.910156 6.1875 C 2.699219 6.1875 2.527344 6.363281 2.527344 6.574219 C 2.527344 6.671875 2.5625 6.75 2.601562 6.808594 Z M 11.734375 22.65625 "/>
</g>
<path style=" stroke:none;fill-rule:nonzero;fill:rgb(1.179504%,59.609985%,61.959839%);fill-opacity:1;" d="M 17.457031 19.75 C 17.589844 19.75 17.726562 19.671875 17.78125 19.554688 L 23.117188 10.488281 L 22.234375 10.488281 L 17.457031 18.585938 L 12.792969 10.488281 L 11.90625 10.488281 L 17.128906 19.554688 C 17.1875 19.671875 17.320312 19.75 17.457031 19.75 Z M 17.457031 19.75 "/>
<g clip-path="url(#clip3)" clip-rule="nonzero">
<path style=" stroke:none;fill-rule:nonzero;fill:rgb(1.179504%,59.609985%,61.959839%);fill-opacity:1;" d="M 26.796875 3.089844 L 8.304688 3.089844 C 8.09375 3.089844 7.917969 3.261719 7.917969 3.476562 C 7.917969 3.574219 7.957031 3.652344 7.996094 3.707031 L 10.558594 8.164062 L 11.445312 8.164062 L 8.980469 3.863281 L 26.125 3.863281 L 23.601562 8.164062 L 24.488281 8.164062 L 27.125 3.667969 C 27.203125 3.554688 27.203125 3.398438 27.125 3.28125 C 27.066406 3.167969 26.933594 3.089844 26.796875 3.089844 Z M 26.796875 3.089844 "/>
</g>
</g>
</svg>
