<svg id="svg" version="1.1" xmlns="http://www.w3.org/2000/svg" xmlns:xlink="http://www.w3.org/1999/xlink" width="400" height="400" viewBox="0, 0, 400,400"><g id="svgg"><path id="path0" d="M101.057 29.211 C 98.826 29.880,97.200 32.118,97.200 34.521 C 97.200 36.004,99.146 39.481,123.099 80.800 L 136.200 103.400 142.500 103.510 C 146.660 103.583,148.800 103.479,148.800 103.205 C 148.800 102.976,140.700 88.754,130.800 71.600 C 120.900 54.446,112.800 40.318,112.800 40.205 C 112.800 40.092,169.950 40.000,239.800 40.000 C 309.650 40.000,366.800 40.069,366.800 40.152 C 366.800 40.236,358.430 54.479,348.200 71.802 C 337.970 89.126,329.600 103.372,329.600 103.460 C 329.600 103.548,332.499 103.570,336.043 103.510 L 342.486 103.400 362.343 69.811 C 380.816 38.563,382.200 36.094,382.200 34.380 C 382.200 31.989,380.638 29.815,378.492 29.219 C 376.643 28.705,102.771 28.698,101.057 29.211 M20.200 75.313 C 17.175 77.013,16.520 79.766,18.311 83.244 C 19.171 84.914,115.303 250.848,148.164 307.384 C 154.610 318.474,155.544 319.600,158.299 319.600 C 160.044 319.600,162.038 318.666,162.782 317.500 C 165.457 313.307,205.200 246.224,205.200 245.903 C 205.200 245.518,200.529 237.135,199.394 235.484 C 198.965 234.859,196.331 239.093,178.805 268.584 C 167.752 287.183,158.589 302.400,158.443 302.400 C 158.298 302.400,151.263 290.475,142.810 275.900 C 134.357 261.325,112.654 223.930,94.582 192.800 C 37.786 94.970,32.800 86.348,32.800 85.969 C 32.800 85.746,48.466 85.600,72.400 85.600 C 94.180 85.600,112.000 85.482,112.000 85.337 C 112.000 85.192,110.610 82.672,108.912 79.737 L 105.824 74.400 63.812 74.407 L 21.800 74.413 20.200 75.313 M146.000 74.642 C 146.000 74.776,147.371 77.296,149.046 80.242 L 152.092 85.600 219.489 85.600 C 273.243 85.600,286.846 85.701,286.691 86.100 C 286.585 86.375,271.355 112.234,252.849 143.565 C 234.342 174.896,219.200 200.667,219.200 200.834 C 219.200 201.464,225.523 212.048,225.710 211.731 C 286.227 109.269,302.116 82.056,302.272 80.600 C 302.518 78.310,301.425 76.414,299.215 75.300 L 297.430 74.400 221.715 74.400 C 180.072 74.400,146.000 74.509,146.000 74.642 M101.400 115.330 C 98.305 116.541,96.946 118.495,97.311 121.210 C 97.449 122.242,106.099 137.506,125.102 170.254 C 140.277 196.404,157.333 225.810,163.003 235.600 C 168.673 245.390,173.449 253.553,173.617 253.741 C 173.784 253.928,175.360 251.678,177.117 248.741 L 180.313 243.400 179.072 241.200 C 178.390 239.990,163.200 213.710,145.318 182.800 L 112.805 126.600 181.277 126.400 L 249.748 126.200 253.074 120.678 C 254.903 117.641,256.400 115.076,256.400 114.978 C 256.400 114.525,102.566 114.874,101.400 115.330 M293.029 120.491 L 289.604 126.200 328.176 126.400 L 366.747 126.600 345.643 162.200 C 311.477 219.832,259.692 307.278,248.997 325.400 C 243.544 334.640,238.883 342.415,238.641 342.679 C 238.311 343.036,233.853 335.619,221.000 313.330 C 211.540 296.924,202.972 282.070,201.960 280.319 L 200.119 277.137 196.878 282.615 L 193.637 288.093 194.718 289.978 C 210.802 318.014,233.653 357.163,234.424 358.005 C 236.155 359.894,238.367 360.304,240.624 359.155 C 242.646 358.126,240.276 362.059,311.235 241.982 C 315.325 235.062,332.943 205.280,350.387 175.801 C 383.660 119.569,383.083 120.634,381.721 118.014 C 380.041 114.782,383.332 115.014,337.327 114.891 L 296.453 114.782 293.029 120.491 M156.760 138.700 C 169.921 162.406,234.581 272.709,235.654 273.285 C 239.737 275.474,241.385 274.174,247.421 263.998 C 250.096 259.489,265.387 233.660,281.400 206.600 C 311.690 155.414,319.938 141.493,321.274 139.300 L 322.065 138.000 315.533 138.013 L 309.000 138.026 273.800 197.405 C 254.440 230.063,238.469 256.742,238.309 256.692 C 238.061 256.614,202.140 194.810,177.061 151.313 L 169.400 138.027 162.886 138.013 C 156.799 138.001,156.397 138.046,156.760 138.700 " stroke="none" fill="#cc2d4d" fill-rule="evenodd"></path><path id="path1" d="M0.000 200.000 L 0.000 400.000 200.000 400.000 L 400.000 400.000 400.000 200.000 L 400.000 0.000 200.000 0.000 L 0.000 0.000 0.000 200.000 M379.743 29.559 C 381.495 30.714,382.394 32.362,382.397 34.423 C 382.400 36.533,384.491 32.820,359.604 74.900 L 342.631 103.600 335.901 103.600 C 329.609 103.600,329.197 103.555,329.566 102.900 C 329.782 102.515,338.149 88.340,348.158 71.400 L 366.356 40.600 303.211 40.499 C 268.480 40.443,211.517 40.443,176.625 40.499 L 113.184 40.600 131.016 71.529 C 140.823 88.540,148.948 102.719,149.070 103.039 C 149.261 103.535,148.319 103.604,142.617 103.510 L 135.940 103.400 121.347 78.200 C 98.365 38.513,97.322 36.674,97.025 35.320 C 96.631 33.520,97.959 30.657,99.673 29.612 C 101.693 28.380,377.876 28.328,379.743 29.559 M109.300 79.938 C 111.005 82.974,112.400 85.580,112.400 85.729 C 112.400 85.878,94.504 86.000,72.632 86.000 L 32.864 86.000 39.298 97.100 C 42.836 103.205,63.756 139.250,85.786 177.200 C 107.815 215.150,133.120 258.755,142.019 274.100 C 150.918 289.445,158.312 302.000,158.450 302.000 C 158.587 302.000,167.651 286.925,178.591 268.500 C 189.531 250.075,198.614 234.859,198.775 234.686 C 199.134 234.301,205.697 245.572,205.464 246.172 C 204.980 247.414,163.017 317.539,162.300 318.304 C 160.471 320.256,156.998 320.327,154.855 318.457 C 154.116 317.812,142.048 297.372,123.882 266.000 C 107.513 237.730,78.046 186.880,58.400 153.000 C 38.755 119.120,21.448 89.253,19.940 86.628 C 16.866 81.274,16.495 79.434,18.002 76.996 C 19.695 74.258,16.850 74.418,63.800 74.418 L 106.200 74.417 109.300 79.938 M299.881 75.300 C 301.823 76.613,303.045 79.315,302.535 81.163 C 302.216 82.315,226.607 211.084,225.664 212.079 C 225.519 212.232,223.910 209.752,222.090 206.568 L 218.779 200.778 252.590 143.554 C 271.185 112.080,286.400 86.255,286.400 86.165 C 286.400 86.074,256.182 86.000,219.250 86.000 L 152.100 86.000 148.950 80.528 C 147.217 77.519,145.740 74.909,145.667 74.728 C 145.593 74.548,179.962 74.400,222.042 74.400 L 298.550 74.400 299.881 75.300 M256.314 115.700 C 255.996 116.195,254.422 118.805,252.816 121.500 L 249.897 126.400 181.549 126.400 C 143.957 126.400,113.200 126.500,113.200 126.622 C 113.200 126.744,128.162 152.705,146.449 184.312 C 164.737 215.919,179.877 242.169,180.094 242.646 C 180.457 243.444,176.083 251.797,174.187 253.927 C 173.816 254.343,171.220 250.153,161.799 233.927 C 91.099 112.161,96.528 121.749,97.015 119.531 C 97.347 118.022,99.052 116.028,100.580 115.363 C 101.580 114.927,115.776 114.828,179.346 114.816 L 256.892 114.800 256.314 115.700 M379.487 115.468 C 381.328 116.342,382.397 118.143,382.399 120.375 C 382.400 121.970,381.535 123.611,373.861 136.575 C 369.165 144.509,351.587 174.220,334.799 202.600 C 318.011 230.980,290.430 277.600,273.508 306.200 C 256.586 334.800,242.349 358.511,241.870 358.891 C 239.871 360.480,236.311 360.260,234.516 358.437 C 233.412 357.316,193.600 288.867,193.600 288.090 C 193.600 287.868,195.063 285.223,196.851 282.211 L 200.102 276.736 202.551 280.936 C 203.898 283.246,212.470 298.096,221.600 313.936 C 233.823 335.141,238.314 342.612,238.634 342.268 C 238.873 342.010,243.631 334.060,249.208 324.600 C 254.785 315.140,283.435 266.753,312.874 217.073 C 342.313 167.393,366.400 126.668,366.400 126.573 C 366.400 126.478,349.038 126.400,327.817 126.400 L 289.234 126.400 292.716 120.600 L 296.198 114.800 337.138 114.800 C 374.553 114.800,378.200 114.858,379.487 115.468 M176.029 149.109 C 200.506 191.542,238.202 256.398,238.383 256.390 C 238.502 256.385,254.440 229.660,273.800 197.001 L 309.000 137.622 315.738 137.611 L 322.476 137.600 321.370 139.500 C 320.761 140.545,316.901 147.070,312.791 154.000 C 308.682 160.930,291.320 190.270,274.210 219.200 C 257.100 248.130,242.730 272.207,242.277 272.704 C 240.352 274.816,236.382 274.718,234.344 272.509 C 233.603 271.706,164.989 153.703,156.888 139.300 L 155.932 137.600 162.666 137.609 L 169.400 137.617 176.029 149.109 " stroke="none" fill="#fcfbfb" fill-rule="evenodd"></path><path id="path2" d="M112.800 40.300 C 112.800 40.465,169.950 40.600,239.800 40.600 C 309.650 40.600,366.800 40.465,366.800 40.300 C 366.800 40.135,309.650 40.000,239.800 40.000 C 169.950 40.000,112.800 40.135,112.800 40.300 M72.400 85.600 L 32.600 85.806 72.500 85.903 C 98.898 85.967,112.400 85.865,112.400 85.600 C 112.400 85.380,112.355 85.244,112.300 85.297 C 112.245 85.350,94.290 85.487,72.400 85.600 M185.900 85.900 C 204.435 85.957,234.765 85.957,253.300 85.900 C 271.835 85.842,256.670 85.795,219.600 85.795 C 182.530 85.795,167.365 85.842,185.900 85.900 M159.500 137.898 C 161.315 137.972,164.285 137.972,166.100 137.898 C 167.915 137.823,166.430 137.763,162.800 137.763 C 159.170 137.763,157.685 137.823,159.500 137.898 M312.300 137.898 C 314.115 137.972,317.085 137.972,318.900 137.898 C 320.715 137.823,319.230 137.763,315.600 137.763 C 311.970 137.763,310.485 137.823,312.300 137.898 " stroke="none" fill="#e494a4" fill-rule="evenodd"></path><path id="path3" d="" stroke="none" fill="#ecabb9" fill-rule="evenodd"></path><path id="path4" d="" stroke="none" fill="#f4d1d9" fill-rule="evenodd"></path></g></svg>