<?xml version="1.0" encoding="UTF-8"?>
<svg xmlns="http://www.w3.org/2000/svg" xmlns:xlink="http://www.w3.org/1999/xlink" width="16pt" height="16pt" viewBox="0 0 16 16" version="1.1">
<defs>
<clipPath id="clip1">
  <path d="M 7.367188 4.210938 L 14.316406 4.210938 L 14.316406 13.464844 L 7.367188 13.464844 Z M 7.367188 4.210938 "/>
</clipPath>
<clipPath id="clip2">
  <path d="M 1.332031 3.15625 L 8.421875 3.15625 L 8.421875 12.105469 L 1.332031 12.105469 Z M 1.332031 3.15625 "/>
</clipPath>
<clipPath id="clip3">
  <path d="M 4 1.625 L 14.316406 1.625 L 14.316406 4.738281 L 4 4.738281 Z M 4 1.625 "/>
</clipPath>
</defs>
<g id="surface1">
<path style=" stroke:none;fill-rule:nonzero;fill:rgb(1.176471%,59.607843%,61.960784%);fill-opacity:1;" d="M 4.371094 4.703125 C 4.261719 4.703125 4.167969 4.796875 4.167969 4.910156 C 4.167969 4.957031 4.1875 5 4.207031 5.03125 L 6.894531 9.691406 L 7.128906 9.292969 L 4.726562 5.113281 L 9.59375 5.113281 L 9.835938 4.703125 Z M 4.371094 4.703125 "/>
<g clip-path="url(#clip1)" clip-rule="nonzero">
<path style=" stroke:none;fill-rule:nonzero;fill:rgb(1.176471%,59.607843%,61.960784%);fill-opacity:1;" d="M 14.105469 4.703125 L 11.246094 4.703125 L 11 5.113281 L 13.75 5.113281 L 9.1875 12.863281 L 7.828125 10.496094 L 7.59375 10.894531 L 9.015625 13.363281 C 9.054688 13.421875 9.117188 13.464844 9.1875 13.464844 C 9.257812 13.464844 9.328125 13.421875 9.359375 13.363281 L 14.277344 5 C 14.316406 4.941406 14.316406 4.859375 14.277344 4.796875 C 14.246094 4.746094 14.175781 4.703125 14.105469 4.703125 Z M 14.105469 4.703125 "/>
</g>
<path style=" stroke:none;fill-rule:nonzero;fill:rgb(1.176471%,59.607843%,61.960784%);fill-opacity:1;" d="M 8.496094 7.773438 L 8.730469 8.183594 L 11.4375 3.5625 C 11.476562 3.5 11.476562 3.421875 11.4375 3.359375 C 11.398438 3.296875 11.335938 3.257812 11.265625 3.257812 L 5.890625 3.257812 L 6.125 3.664062 L 10.910156 3.664062 Z M 8.496094 7.773438 "/>
<g clip-path="url(#clip2)" clip-rule="nonzero">
<path style=" stroke:none;fill-rule:nonzero;fill:rgb(1.176471%,59.607843%,61.960784%);fill-opacity:1;" d="M 6.175781 11.925781 C 6.21875 11.984375 6.277344 12.023438 6.347656 12.023438 C 6.417969 12.023438 6.492188 11.984375 6.519531 11.925781 L 8.019531 9.386719 L 7.789062 8.976562 L 6.347656 11.414062 L 1.878906 3.664062 L 4.714844 3.664062 L 4.480469 3.257812 L 1.53125 3.257812 C 1.421875 3.257812 1.332031 3.347656 1.332031 3.460938 C 1.332031 3.511719 1.347656 3.550781 1.371094 3.582031 Z M 6.175781 11.925781 "/>
</g>
<path style=" stroke:none;fill-rule:nonzero;fill:rgb(1.176471%,59.607843%,61.960784%);fill-opacity:1;" d="M 9.1875 10.394531 C 9.257812 10.394531 9.328125 10.355469 9.359375 10.292969 L 12.167969 5.519531 L 11.703125 5.519531 L 9.1875 9.78125 L 6.734375 5.519531 L 6.265625 5.519531 L 9.015625 10.292969 C 9.046875 10.355469 9.117188 10.394531 9.1875 10.394531 Z M 9.1875 10.394531 "/>
<g clip-path="url(#clip3)" clip-rule="nonzero">
<path style=" stroke:none;fill-rule:nonzero;fill:rgb(1.176471%,59.607843%,61.960784%);fill-opacity:1;" d="M 14.105469 1.625 L 4.371094 1.625 C 4.261719 1.625 4.167969 1.714844 4.167969 1.828125 C 4.167969 1.882812 4.1875 1.921875 4.207031 1.949219 L 5.558594 4.296875 L 6.023438 4.296875 L 4.726562 2.035156 L 13.75 2.035156 L 12.421875 4.296875 L 12.886719 4.296875 L 14.277344 1.929688 C 14.316406 1.871094 14.316406 1.789062 14.277344 1.726562 C 14.246094 1.667969 14.175781 1.625 14.105469 1.625 Z M 14.105469 1.625 "/>
</g>
</g>
</svg>
